{
  "accessors": [
    {
      "bufferView": 2,
      "componentType": 5126,
      "count": 19,
      "max": [
        0.2804921567440033,
        1.447748064994812,
        0.5927673578262329
      ],
      "min": [
        -0.2804918885231018,
        1.0689301490783691,
        -0.19017910957336426
      ],
      "type": "VEC3"
    },
    {
      "bufferView": 2,
      "byteOffset": 228,
      "componentType": 5126,
      "count": 19,
      "max": [
        0.7683473229408264,
        0.3218119740486145,
        0.9670624732971191
      ],
      "min": [
        -0.7303975224494934,
        -0.9556412100791931,
        -0.9894996881484985
      ],
      "type": "VEC3"
    },
    {
      "bufferView": 1,
      "componentType": 5126,
      "count": 19,
      "max": [
        1.217919945716858,
        0.9756249785423279
      ],
      "min": [
        1.029710054397583,
        0.530826985836029
      ],
      "type": "VEC2"
    },
    {
      "bufferView": 0,
      "componentType": 5125,
      "count": 42,
      "type": "SCALAR"
    },
    {
      "bufferView": 2,
      "byteOffset": 456,
      "componentType": 5126,
      "count": 796,
      "max": [
        0.6740738749504089,
        1.9690463542938232,
        0.7213243842124939
      ],
      "min": [
        -0.6740748882293701,
        -0.00020514831703621894,
        -0.8012798428535461
      ],
      "type": "VEC3"
    },
    {
      "bufferView": 2,
      "byteOffset": 10008,
      "componentType": 5126,
      "count": 796,
      "max": [
        0.9993699789047241,
        0.9995922446250916,
        0.9995336532592773
      ],
      "min": [
        -0.9978672862052917,
        -0.9921849966049194,
        -1.0000158548355103
      ],
      "type": "VEC3"
    },
    {
      "bufferView": 1,
      "byteOffset": 152,
      "componentType": 5126,
      "count": 796,
      "max": [
        0.992946982383728,
        0.9936659932136536
      ],
      "min": [
        0.05156780034303665,
        0.06448809802532196
      ],
      "type": "VEC2"
    },
    {
      "bufferView": 0,
      "byteOffset": 168,
      "componentType": 5125,
      "count": 2784,
      "type": "SCALAR"
    },
    {
      "bufferView": 2,
      "byteOffset": 19560,
      "componentType": 5126,
      "count": 9,
      "max": [
        0.06777170300483704,
        1.8356465101242065,
        0.25504958629608154
      ],
      "min": [
        -0.06777209043502808,
        1.780982494354248,
        0.12796823680400848
      ],
      "type": "VEC3"
    },
    {
      "bufferView": 2,
      "byteOffset": 19668,
      "componentType": 5126,
      "count": 9,
      "max": [
        0.5489718317985535,
        0.9982534646987915,
        0.6915417909622192
      ],
      "min": [
        -0.5489725470542908,
        0.7224381566047668,
        0.060307830572128296
      ],
      "type": "VEC3"
    },
    {
      "bufferView": 1,
      "byteOffset": 6520,
      "componentType": 5126,
      "count": 9,
      "max": [
        0.3588489890098572,
        0.0923611968755722
      ],
      "min": [
        0.31649601459503174,
        0.06872239708900452
      ],
      "type": "VEC2"
    },
    {
      "bufferView": 0,
      "byteOffset": 11304,
      "componentType": 5125,
      "count": 24,
      "type": "SCALAR"
    },
    {
      "bufferView": 2,
      "byteOffset": 19776,
      "componentType": 5126,
      "count": 9,
      "max": [
        0.06777170300483704,
        1.8356465101242065,
        0.25504958629608154
      ],
      "min": [
        -0.06777209043502808,
        1.780982494354248,
        0.12796823680400848
      ],
      "type": "VEC3"
    },
    {
      "bufferView": 2,
      "byteOffset": 19884,
      "componentType": 5126,
      "count": 9,
      "max": [
        0.5489718317985535,
        0.9982534646987915,
        0.6915417909622192
      ],
      "min": [
        -0.5489725470542908,
        0.7224381566047668,
        0.060307830572128296
      ],
      "type": "VEC3"
    },
    {
      "bufferView": 1,
      "byteOffset": 6592,
      "componentType": 5126,
      "count": 9,
      "max": [
        0.3588489890098572,
        0.0923611968755722
      ],
      "min": [
        0.31649601459503174,
        0.06872239708900452
      ],
      "type": "VEC2"
    },
    {
      "bufferView": 0,
      "byteOffset": 11400,
      "componentType": 5125,
      "count": 24,
      "type": "SCALAR"
    },
    {
      "bufferView": 2,
      "byteOffset": 19992,
      "componentType": 5126,
      "count": 796,
      "max": [
        0.6740738749504089,
        1.9690463542938232,
        0.7213243842124939
      ],
      "min": [
        -0.6740748882293701,
        -0.00020514831703621894,
        -0.8012798428535461
      ],
      "type": "VEC3"
    },
    {
      "bufferView": 2,
      "byteOffset": 29544,
      "componentType": 5126,
      "count": 796,
      "max": [
        0.9993699789047241,
        0.9995922446250916,
        0.9995336532592773
      ],
      "min": [
        -0.9978672862052917,
        -0.9921849966049194,
        -1.0000158548355103
      ],
      "type": "VEC3"
    },
    {
      "bufferView": 1,
      "byteOffset": 6664,
      "componentType": 5126,
      "count": 796,
      "max": [
        0.992946982383728,
        0.9936659932136536
      ],
      "min": [
        0.05156780034303665,
        0.06448809802532196
      ],
      "type": "VEC2"
    },
    {
      "bufferView": 0,
      "byteOffset": 11496,
      "componentType": 5125,
      "count": 2784,
      "type": "SCALAR"
    },
    {
      "bufferView": 2,
      "byteOffset": 39096,
      "componentType": 5126,
      "count": 19,
      "max": [
        0.2804921567440033,
        1.447748064994812,
        0.5927673578262329
      ],
      "min": [
        -0.2804918885231018,
        1.0689301490783691,
        -0.19017910957336426
      ],
      "type": "VEC3"
    },
    {
      "bufferView": 2,
      "byteOffset": 39324,
      "componentType": 5126,
      "count": 19,
      "max": [
        0.7683473229408264,
        0.3218119740486145,
        0.9670624732971191
      ],
      "min": [
        -0.7303975224494934,
        -0.9556412100791931,
        -0.9894996881484985
      ],
      "type": "VEC3"
    },
    {
      "bufferView": 1,
      "byteOffset": 13032,
      "componentType": 5126,
      "count": 19,
      "max": [
        1.217919945716858,
        0.9756249785423279
      ],
      "min": [
        1.029710054397583,
        0.530826985836029
      ],
      "type": "VEC2"
    },
    {
      "bufferView": 0,
      "byteOffset": 22632,
      "componentType": 5125,
      "count": 42,
      "type": "SCALAR"
    }
  ],
  "asset": {
    "extras": {
      "author": "nguyenlouis32 (https://sketchfab.com/nguyenlouis32)",
      "license": "CC-BY-4.0 (http://creativecommons.org/licenses/by/4.0/)",
      "source": "https://sketchfab.com/3d-models/slowking-936e43d115414ac6a40d0df80eed6dbe",
      "title": "Slowking"
    },
    "generator": "Sketchfab-13.31.0",
    "version": "2.0"
  },
  "bufferViews": [
    {
      "buffer": 0,
      "byteLength": 22800,
      "name": "floatBufferViews",
      "target": 34963
    },
    {
      "buffer": 0,
      "byteLength": 13184,
      "byteOffset": 22800,
      "byteStride": 8,
      "name": "floatBufferViews",
      "target": 34962
    },
    {
      "buffer": 0,
      "byteLength": 39552,
      "byteOffset": 35984,
      "byteStride": 12,
      "name": "floatBufferViews",
      "target": 34962
    }
  ],
  "buffers": [
    {
      "byteLength": 75536,
      "uri": "scene.bin"
    }
  ],
  "images": [
    {
      "uri": "textures/eye_mat_baseColor.png"
    },
    {
      "uri": "textures/body_mat_baseColor.png"
    }
  ],
  "materials": [
    {
      "doubleSided": true,
      "name": "eye_mat",
      "pbrMetallicRoughness": {
        "baseColorTexture": {
          "index": 0
        },
        "metallicFactor": 0.0,
        "roughnessFactor": 0.6
      }
    },
    {
      "doubleSided": true,
      "name": "body_mat",
      "pbrMetallicRoughness": {
        "baseColorTexture": {
          "index": 1
        },
        "metallicFactor": 0.0,
        "roughnessFactor": 0.6
      }
    },
    {
      "doubleSided": true,
      "name": "sp_mat",
      "pbrMetallicRoughness": {
        "baseColorTexture": {
          "index": 1
        },
        "metallicFactor": 0.0,
        "roughnessFactor": 0.6
      }
    }
  ],
  "meshes": [
    {
      "name": "Object_0",
      "primitives": [
        {
          "attributes": {
            "NORMAL": 1,
            "POSITION": 0,
            "TEXCOORD_0": 2
          },
          "indices": 3,
          "material": 0,
          "mode": 4
        }
      ]
    },
    {
      "name": "Object_1",
      "primitives": [
        {
          "attributes": {
            "NORMAL": 5,
            "POSITION": 4,
            "TEXCOORD_0": 6
          },
          "indices": 7,
          "material": 1,
          "mode": 4
        }
      ]
    },
    {
      "name": "Object_2",
      "primitives": [
        {
          "attributes": {
            "NORMAL": 9,
            "POSITION": 8,
            "TEXCOORD_0": 10
          },
          "indices": 11,
          "material": 2,
          "mode": 4
        }
      ]
    },
    {
      "name": "Object_3",
      "primitives": [
        {
          "attributes": {
            "NORMAL": 13,
            "POSITION": 12,
            "TEXCOORD_0": 14
          },
          "indices": 15,
          "material": 2,
          "mode": 4
        }
      ]
    },
    {
      "name": "Object_4",
      "primitives": [
        {
          "attributes": {
            "NORMAL": 17,
            "POSITION": 16,
            "TEXCOORD_0": 18
          },
          "indices": 19,
          "material": 1,
          "mode": 4
        }
      ]
    },
    {
      "name": "Object_5",
      "primitives": [
        {
          "attributes": {
            "NORMAL": 21,
            "POSITION": 20,
            "TEXCOORD_0": 22
          },
          "indices": 23,
          "material": 0,
          "mode": 4
        }
      ]
    }
  ],
  "nodes": [
    {
      "children": [
        1
      ],
      "matrix": [
        1.0,
        0.0,
        0.0,
        0.0,
        0.0,
        2.220446049250313e-16,
        -1.0,
        0.0,
        0.0,
        1.0,
        2.220446049250313e-16,
        0.0,
        0.0,
        0.0,
        0.0,
        1.0
      ],
      "name": "Sketchfab_model"
    },
    {
      "children": [
        2
      ],
      "matrix": [
        1.0,
        0.0,
        0.0,
        0.0,
        0.0,
        -4.371139006309477e-08,
        0.999999999999999,
        0.0,
        0.0,
        -0.999999999999999,
        -4.371139006309477e-08,
        0.0,
        0.0,
        0.0,
        0.0,
        1.0
      ],
      "name": "Collada visual scene group"
    },
    {
      "children": [
        3,
        4,
        5,
        6,
        7,
        8
      ],
      "name": "Object_2"
    },
    {
      "mesh": 0,
      "name": "Object_3"
    },
    {
      "mesh": 1,
      "name": "Object_4"
    },
    {
      "mesh": 2,
      "name": "Object_5"
    },
    {
      "mesh": 3,
      "name": "Object_6"
    },
    {
      "mesh": 4,
      "name": "Object_7"
    },
    {
      "mesh": 5,
      "name": "Object_8"
    }
  ],
  "samplers": [
    {
      "magFilter": 9729,
      "minFilter": 9987,
      "wrapS": 10497,
      "wrapT": 10497
    }
  ],
  "scene": 0,
  "scenes": [
    {
      "name": "Sketchfab_Scene",
      "nodes": [
        0
      ]
    }
  ],
  "textures": [
    {
      "sampler": 0,
      "source": 0
    },
    {
      "sampler": 0,
      "source": 1
    }
  ]
}
