{
  "accessors": [
    {
      "bufferView": 2,
      "componentType": 5126,
      "count": 1114,
      "max": [
        2.6182665824890137,
        3.9040136337280273,
        1.3644256591796875
      ],
      "min": [
        -2.534954309463501,
        -0.01797640509903431,
        -1.9031906127929688
      ],
      "type": "VEC3"
    },
    {
      "bufferView": 2,
      "byteOffset": 13368,
      "componentType": 5126,
      "count": 1114,
      "max": [
        0.9999816417694092,
        0.9991002082824707,
        0.9991523027420044
      ],
      "min": [
        -0.9993822574615479,
        -0.9992552399635315,
        -0.9998905658721924
      ],
      "type": "VEC3"
    },
    {
      "bufferView": 1,
      "componentType": 5126,
      "count": 1114,
      "max": [
        0.9721366763114929,
        0.9688392877578735
      ],
      "min": [
        0.03160376846790314,
        0.02701830491423607
      ],
      "type": "VEC2"
    },
    {
      "bufferView": 0,
      "componentType": 5125,
      "count": 4776,
      "type": "SCALAR"
    },
    {
      "bufferView": 2,
      "byteOffset": 26736,
      "componentType": 5126,
      "count": 1114,
      "max": [
        2.6182665824890137,
        3.9040136337280273,
        1.3644256591796875
      ],
      "min": [
        -2.534954309463501,
        -0.01797640509903431,
        -1.9031906127929688
      ],
      "type": "VEC3"
    },
    {
      "bufferView": 2,
      "byteOffset": 40104,
      "componentType": 5126,
      "count": 1114,
      "max": [
        0.9999816417694092,
        0.9991002082824707,
        0.9991523027420044
      ],
      "min": [
        -0.9993822574615479,
        -0.9992552399635315,
        -0.9998905658721924
      ],
      "type": "VEC3"
    },
    {
      "bufferView": 1,
      "byteOffset": 8912,
      "componentType": 5126,
      "count": 1114,
      "max": [
        0.9721366763114929,
        0.9688392877578735
      ],
      "min": [
        0.03160376846790314,
        0.02701830491423607
      ],
      "type": "VEC2"
    },
    {
      "bufferView": 0,
      "byteOffset": 19104,
      "componentType": 5125,
      "count": 4776,
      "type": "SCALAR"
    },
    {
      "bufferView": 2,
      "byteOffset": 53472,
      "componentType": 5126,
      "count": 1114,
      "max": [
        2.6182665824890137,
        3.9040136337280273,
        1.3644256591796875
      ],
      "min": [
        -2.534954309463501,
        -0.01797640509903431,
        -1.9031906127929688
      ],
      "type": "VEC3"
    },
    {
      "bufferView": 2,
      "byteOffset": 66840,
      "componentType": 5126,
      "count": 1114,
      "max": [
        0.9999816417694092,
        0.9991002082824707,
        0.9991523027420044
      ],
      "min": [
        -0.9993822574615479,
        -0.9992552399635315,
        -0.9998905658721924
      ],
      "type": "VEC3"
    },
    {
      "bufferView": 1,
      "byteOffset": 17824,
      "componentType": 5126,
      "count": 1114,
      "max": [
        0.9721366763114929,
        0.9688392877578735
      ],
      "min": [
        0.03160376846790314,
        0.02701830491423607
      ],
      "type": "VEC2"
    },
    {
      "bufferView": 0,
      "byteOffset": 38208,
      "componentType": 5125,
      "count": 4776,
      "type": "SCALAR"
    },
    {
      "bufferView": 3,
      "componentType": 5126,
      "count": 6,
      "max": [
        0.8750100135803223
      ],
      "min": [
        0.0416666679084301
      ],
      "type": "SCALAR"
    },
    {
      "bufferView": 4,
      "componentType": 5126,
      "count": 6,
      "max": [
        1.0,
        1.0,
        1.0
      ],
      "min": [
        1.000000013351432e-10,
        1.000000013351432e-10,
        1.000000013351432e-10
      ],
      "type": "VEC3"
    },
    {
      "bufferView": 3,
      "byteOffset": 24,
      "componentType": 5126,
      "count": 6,
      "max": [
        0.6250100135803223
      ],
      "min": [
        0.0416666679084301
      ],
      "type": "SCALAR"
    },
    {
      "bufferView": 4,
      "byteOffset": 72,
      "componentType": 5126,
      "count": 6,
      "max": [
        1.0,
        1.0,
        1.0
      ],
      "min": [
        1.000000013351432e-10,
        1.000000013351432e-10,
        1.000000013351432e-10
      ],
      "type": "VEC3"
    },
    {
      "bufferView": 3,
      "byteOffset": 48,
      "componentType": 5126,
      "count": 6,
      "max": [
        0.8750100135803223
      ],
      "min": [
        0.0416666679084301
      ],
      "type": "SCALAR"
    },
    {
      "bufferView": 4,
      "byteOffset": 144,
      "componentType": 5126,
      "count": 6,
      "max": [
        1.0,
        1.0,
        1.0
      ],
      "min": [
        1.000000013351432e-10,
        1.000000013351432e-10,
        1.000000013351432e-10
      ],
      "type": "VEC3"
    }
  ],
  "animations": [
    {
      "channels": [
        {
          "sampler": 0,
          "target": {
            "node": 5,
            "path": "scale"
          }
        },
        {
          "sampler": 1,
          "target": {
            "node": 7,
            "path": "scale"
          }
        },
        {
          "sampler": 2,
          "target": {
            "node": 9,
            "path": "scale"
          }
        }
      ],
      "name": "SwitchPalettes",
      "samplers": [
        {
          "input": 12,
          "interpolation": "LINEAR",
          "output": 13
        },
        {
          "input": 14,
          "interpolation": "LINEAR",
          "output": 15
        },
        {
          "input": 16,
          "interpolation": "LINEAR",
          "output": 17
        }
      ]
    }
  ],
  "asset": {
    "extras": {
      "author": "PrufDesigner (https://sketchfab.com/PrufDesigner)",
      "license": "CC-BY-4.0 (http://creativecommons.org/licenses/by/4.0/)",
      "source": "https://sketchfab.com/3d-models/jynx-4261595604444d6082a02b1461f285b6",
      "title": "Jynx"
    },
    "generator": "Sketchfab-12.63.0",
    "version": "2.0"
  },
  "bufferViews": [
    {
      "buffer": 0,
      "byteLength": 57312,
      "name": "floatBufferViews",
      "target": 34963
    },
    {
      "buffer": 0,
      "byteLength": 26736,
      "byteOffset": 57312,
      "byteStride": 8,
      "name": "floatBufferViews",
      "target": 34962
    },
    {
      "buffer": 0,
      "byteLength": 80208,
      "byteOffset": 84048,
      "byteStride": 12,
      "name": "floatBufferViews",
      "target": 34962
    },
    {
      "buffer": 0,
      "byteLength": 72,
      "byteOffset": 164256,
      "name": "floatBufferViews"
    },
    {
      "buffer": 0,
      "byteLength": 216,
      "byteOffset": 164328,
      "byteStride": 12,
      "name": "floatBufferViews"
    }
  ],
  "buffers": [
    {
      "byteLength": 164544,
      "uri": "scene.bin"
    }
  ],
  "images": [
    {
      "uri": "textures/jynxTXTR_MAT_baseColor.png"
    },
    {
      "uri": "textures/jynxShinyTXTR_MAT_baseColor.png"
    },
    {
      "uri": "textures/jynxClassicTXTR_MAT_baseColor.png"
    }
  ],
  "materials": [
    {
      "doubleSided": true,
      "name": "jynxTXTR_MAT",
      "pbrMetallicRoughness": {
        "baseColorTexture": {
          "index": 0
        },
        "metallicFactor": 0.0,
        "roughnessFactor": 0.6
      }
    },
    {
      "doubleSided": true,
      "name": "jynxShinyTXTR_MAT",
      "pbrMetallicRoughness": {
        "baseColorTexture": {
          "index": 1
        },
        "metallicFactor": 0.0,
        "roughnessFactor": 0.6
      }
    },
    {
      "doubleSided": true,
      "name": "jynxClassicTXTR_MAT",
      "pbrMetallicRoughness": {
        "baseColorTexture": {
          "index": 2
        },
        "metallicFactor": 0.0,
        "roughnessFactor": 0.6
      }
    }
  ],
  "meshes": [
    {
      "name": "normalJynx_OBJ_jynxTXTR_MAT_0",
      "primitives": [
        {
          "attributes": {
            "NORMAL": 1,
            "POSITION": 0,
            "TEXCOORD_0": 2
          },
          "indices": 3,
          "material": 0,
          "mode": 4
        }
      ]
    },
    {
      "name": "shinyJynx_OBJ_jynxShinyTXTR_MAT_0",
      "primitives": [
        {
          "attributes": {
            "NORMAL": 5,
            "POSITION": 4,
            "TEXCOORD_0": 6
          },
          "indices": 7,
          "material": 1,
          "mode": 4
        }
      ]
    },
    {
      "name": "classicJynx_OBJ_jynxClassicTXTR_MAT_0",
      "primitives": [
        {
          "attributes": {
            "NORMAL": 9,
            "POSITION": 8,
            "TEXCOORD_0": 10
          },
          "indices": 11,
          "material": 2,
          "mode": 4
        }
      ]
    }
  ],
  "nodes": [
    {
      "children": [
        1
      ],
      "matrix": [
        0.7783704400062561,
        0.0,
        0.0,
        0.0,
        0.0,
        1.7283295683651192e-16,
        -0.7783704400062561,
        0.0,
        0.0,
        0.7783704400062561,
        1.7283295683651192e-16,
        0.0,
        0.0,
        0.0,
        0.0,
        1.0
      ],
      "name": "Sketchfab_model"
    },
    {
      "children": [
        2
      ],
      "matrix": [
        1.0,
        0.0,
        0.0,
        0.0,
        0.0,
        0.0,
        1.0,
        0.0,
        0.0,
        -1.0,
        0.0,
        0.0,
        0.0,
        0.0,
        0.0,
        1.0
      ],
      "name": "41d45a74811b4de5a5c06617c44c2fd0.fbx"
    },
    {
      "children": [
        3
      ],
      "name": "Object_2"
    },
    {
      "children": [
        4
      ],
      "name": "RootNode"
    },
    {
      "children": [
        5,
        7,
        9
      ],
      "name": "Jynx_CLRS"
    },
    {
      "children": [
        6
      ],
      "name": "normalJynx_OBJ"
    },
    {
      "mesh": 0,
      "name": "normalJynx_OBJ_jynxTXTR_MAT_0"
    },
    {
      "children": [
        8
      ],
      "name": "shinyJynx_OBJ"
    },
    {
      "mesh": 1,
      "name": "shinyJynx_OBJ_jynxShinyTXTR_MAT_0"
    },
    {
      "children": [
        10
      ],
      "name": "classicJynx_OBJ"
    },
    {
      "mesh": 2,
      "name": "classicJynx_OBJ_jynxClassicTXTR_MAT_0"
    }
  ],
  "samplers": [
    {
      "magFilter": 9729,
      "minFilter": 9987,
      "wrapS": 10497,
      "wrapT": 10497
    }
  ],
  "scene": 0,
  "scenes": [
    {
      "name": "Sketchfab_Scene",
      "nodes": [
        0
      ]
    }
  ],
  "textures": [
    {
      "sampler": 0,
      "source": 0
    },
    {
      "sampler": 0,
      "source": 1
    },
    {
      "sampler": 0,
      "source": 2
    }
  ]
}
